<?xml version="1.0"?>
<svg width="1080" height="1080" xmlns="http://www.w3.org/2000/svg" xmlns:svg="http://www.w3.org/2000/svg" preserveAspectRatio="xMidYMid meet" version="1.0">
 <g class="layer">
  <title>Layer 1</title>
  <g fill="#000000" id="svg_1" transform="matrix(0.1 0 0 -0.1 0 0)">
   <path d="m5186,-4009c-4,-5 -2,-21 4,-36c16,-41 12,-99 -10,-146c-23,-53 -26,-129 -5,-169c21,-41 39,-39 31,3c-18,86 -17,95 6,148c16,38 23,70 21,111c-2,74 -27,121 -47,89z" fill="#ffffff" id="svg_2"/>
   <path d="m5385,-4106c12,-69 8,-105 -15,-155c-11,-24 -20,-61 -20,-82c0,-42 23,-107 39,-107c19,0 21,18 5,55c-17,41 -13,73 17,139c29,64 17,182 -20,194c-11,4 -12,-5 -6,-44z" fill="#ffffff" id="svg_3"/>
   <path d="m4984,-4083c-3,-8 0,-26 6,-41c15,-42 12,-89 -10,-142c-24,-55 -28,-121 -10,-164c16,-39 45,-42 35,-2c-18,70 -17,100 5,148c25,55 29,121 11,177c-13,38 -28,48 -37,24z" fill="#ffffff" id="svg_4"/>
   <path d="m6762,-4503c-120,-110 -102,-101 -224,-107c-105,-5 -111,-6 -134,-33c-32,-38 -33,-96 0,-133c20,-24 33,-28 87,-32l64,-4l83,-237c45,-130 82,-239 82,-243c0,-4 -13,-27 -29,-50c-25,-37 -40,-91 -100,-363c-39,-176 -71,-332 -71,-346c0,-35 33,-75 81,-99c21,-11 39,-26 39,-32c0,-22 -89,-97 -122,-103c-18,-3 -166,-5 -328,-3l-295,3l-57,27c-66,31 -124,87 -158,154c-22,43 -25,62 -25,149c0,93 2,104 31,155c32,57 169,184 231,215c18,9 58,15 97,15c52,0 66,3 66,15c0,11 -12,15 -46,15c-38,0 -45,3 -40,16c3,9 6,18 6,20c0,2 7,4 16,4c15,0 16,9 10,74c-4,40 -11,88 -16,107c-6,19 -10,51 -10,72c0,38 -25,107 -39,107c-4,0 -31,35 -58,78c-111,169 -289,305 -465,357c-53,15 -56,18 -67,59c-14,56 -41,90 -94,115c-50,24 -113,27 -160,7c-47,-19 -96,-79 -103,-126c-5,-33 -11,-41 -33,-46c-196,-44 -401,-201 -520,-398c-47,-78 -90,-212 -99,-309l-7,-82l-96,-6c-66,-4 -105,-11 -123,-22c-51,-34 -95,-155 -103,-282c-5,-81 -9,-98 -48,-170c-23,-44 -60,-123 -80,-175c-21,-52 -46,-101 -56,-108c-17,-12 -19,-28 -19,-131c0,-78 4,-121 12,-129c8,-8 56,-12 151,-12l139,0l-5,-22c-43,-173 13,-369 142,-497c108,-107 233,-161 376,-161c153,0 282,54 386,160c65,66 139,189 139,231c0,18 10,19 128,19c158,0 238,17 350,72l87,43l435,5c483,6 475,5 583,78c46,32 46,32 178,32l132,0l-7,-57c-23,-205 103,-431 293,-526c93,-46 165,-61 276,-54c283,15 505,249 505,530c0,146 -54,271 -166,385l-72,72l78,0c92,0 123,10 146,45c16,24 16,28 -2,63c-11,20 -59,78 -109,127c-139,140 -295,211 -487,222l-98,6l0,56c0,83 -19,107 -138,170c-55,29 -110,62 -121,72c-12,11 -35,68 -55,132c-116,375 -105,346 -134,353c-94,20 -94,44 -1,44c71,0 104,10 126,39c9,11 12,71 13,197c0,242 6,234 -166,234l-125,0l-57,-53zm-1505,-53c35,-17 83,-77 83,-104c0,-13 -23,-15 -150,-15c-121,0 -149,3 -145,13c3,8 5,17 5,22c0,17 55,73 85,86c41,18 80,17 122,-2zm-517,-388c0,-8 -14,-24 -30,-36c-68,-48 -160,-205 -201,-342c-13,-44 -25,-68 -34,-68c-21,0 -19,26 10,114c29,90 54,140 105,216c63,92 150,160 150,116zm2980,-1474c129,-65 187,-228 126,-357c-28,-62 -97,-126 -159,-150c-70,-26 -172,-17 -234,21c-91,56 -153,177 -139,267c33,203 228,308 406,219zm-2814,-133c24,-48 29,-127 11,-190c-24,-80 -67,-132 -139,-168c-140,-70 -307,-15 -378,125c-30,60 -34,167 -8,227l17,37l240,0l240,0l17,-31z" fill="#ffffff" id="svg_5"/>
  </g>
  <rect fill="#ffffff" height="86" id="svg_6" stroke="#ffffff" width="101" x="470.8" y="362.8"/>
  <text fill="#dbdb08" font-family="Fantasy" font-size="69" id="svg_7" stroke="#ffffff" stroke-width="0" text-anchor="middle" transform="matrix(1 0 0 1 0 0)" x="596" xml:space="preserve" y="718.4">DEEntregas</text>
 </g>
</svg>